<mxfile host="65bd71144e">
    <diagram id="5GiOM2J7A5X2RhR5n7nL" name="v2">
        <mxGraphModel dx="1362" dy="1963" grid="1" gridSize="10" guides="1" tooltips="1" connect="1" arrows="1" fold="1" page="1" pageScale="1" pageWidth="850" pageHeight="1100" math="0" shadow="0">
            <root>
                <mxCell id="0"/>
                <mxCell id="1" parent="0"/>
                <mxCell id="PYPigxc6IGzs1RMxk9mi-26" style="edgeStyle=none;html=1;entryX=0.5;entryY=0;entryDx=0;entryDy=0;" parent="1" source="14" target="PYPigxc6IGzs1RMxk9mi-24" edge="1">
                    <mxGeometry relative="1" as="geometry">
                        <Array as="points">
                            <mxPoint x="580" y="60"/>
                            <mxPoint x="370" y="60"/>
                        </Array>
                    </mxGeometry>
                </mxCell>
                <mxCell id="PYPigxc6IGzs1RMxk9mi-27" style="edgeStyle=none;html=1;entryX=0.5;entryY=0;entryDx=0;entryDy=0;" parent="1" source="14" target="PYPigxc6IGzs1RMxk9mi-25" edge="1">
                    <mxGeometry relative="1" as="geometry">
                        <Array as="points">
                            <mxPoint x="580" y="60"/>
                            <mxPoint x="770" y="60"/>
                        </Array>
                    </mxGeometry>
                </mxCell>
                <mxCell id="14" value="Blogs" style="rounded=1;whiteSpace=wrap;html=1;strokeColor=#3700CC;fillColor=#6a00ff;gradientDirection=north;fontColor=#ffffff;fillStyle=solid;" parent="1" vertex="1">
                    <mxGeometry x="520" y="-20" width="120" height="60" as="geometry"/>
                </mxCell>
                <mxCell id="PYPigxc6IGzs1RMxk9mi-31" value="" style="edgeStyle=none;html=1;entryX=0.5;entryY=0;entryDx=0;entryDy=0;" parent="1" source="18" target="19" edge="1">
                    <mxGeometry relative="1" as="geometry">
                        <Array as="points">
                            <mxPoint x="520" y="260"/>
                            <mxPoint x="450" y="260"/>
                        </Array>
                    </mxGeometry>
                </mxCell>
                <mxCell id="PYPigxc6IGzs1RMxk9mi-39" style="edgeStyle=none;html=1;entryX=0.5;entryY=0;entryDx=0;entryDy=0;" parent="1" source="18" target="PYPigxc6IGzs1RMxk9mi-38" edge="1">
                    <mxGeometry relative="1" as="geometry">
                        <Array as="points">
                            <mxPoint x="520" y="260"/>
                            <mxPoint x="590" y="260"/>
                        </Array>
                    </mxGeometry>
                </mxCell>
                <mxCell id="18" value="services" style="rounded=1;whiteSpace=wrap;html=1;strokeColor=#3700CC;fillColor=#6a00ff;gradientDirection=north;fontColor=#ffffff;fillStyle=solid;" parent="1" vertex="1">
                    <mxGeometry x="460" y="180" width="120" height="60" as="geometry"/>
                </mxCell>
                <mxCell id="PYPigxc6IGzs1RMxk9mi-23" value="get data from" style="edgeStyle=none;html=1;exitX=0;exitY=0.5;exitDx=0;exitDy=0;entryX=1;entryY=0.5;entryDx=0;entryDy=0;" parent="1" source="19" target="23" edge="1">
                    <mxGeometry relative="1" as="geometry"/>
                </mxCell>
                <mxCell id="19" value="&lt;div style=&quot;&quot;&gt;&lt;span style=&quot;background-color: initial;&quot;&gt;getBlogs&lt;/span&gt;&lt;/div&gt;" style="rounded=1;whiteSpace=wrap;html=1;gradientDirection=north;fillStyle=solid;align=center;" parent="1" vertex="1">
                    <mxGeometry x="390" y="280" width="120" height="60" as="geometry"/>
                </mxCell>
                <mxCell id="PYPigxc6IGzs1RMxk9mi-30" style="edgeStyle=none;html=1;entryX=0.5;entryY=0;entryDx=0;entryDy=0;" parent="1" source="20" target="23" edge="1">
                    <mxGeometry relative="1" as="geometry"/>
                </mxCell>
                <mxCell id="20" value="data" style="rounded=1;whiteSpace=wrap;html=1;strokeColor=#3700CC;fillColor=#6A00FF;gradientDirection=north;fontColor=#ffffff;fillStyle=solid;" parent="1" vertex="1">
                    <mxGeometry x="140" y="180" width="115" height="60" as="geometry"/>
                </mxCell>
                <mxCell id="23" value="store blogs data as mdx&lt;br&gt;/src/data/blogs/&amp;lt;name&amp;gt;.mdx" style="rounded=1;whiteSpace=wrap;html=1;fillStyle=solid;gradientDirection=north;" parent="1" vertex="1">
                    <mxGeometry x="102.5" y="280" width="190" height="60" as="geometry"/>
                </mxCell>
                <mxCell id="PYPigxc6IGzs1RMxk9mi-28" style="edgeStyle=none;html=1;entryX=0.5;entryY=0;entryDx=0;entryDy=0;" parent="1" source="PYPigxc6IGzs1RMxk9mi-24" target="20" edge="1">
                    <mxGeometry relative="1" as="geometry">
                        <Array as="points">
                            <mxPoint x="370" y="160"/>
                            <mxPoint x="198" y="160"/>
                        </Array>
                    </mxGeometry>
                </mxCell>
                <mxCell id="PYPigxc6IGzs1RMxk9mi-29" style="edgeStyle=none;html=1;entryX=0.5;entryY=0;entryDx=0;entryDy=0;" parent="1" source="PYPigxc6IGzs1RMxk9mi-24" target="18" edge="1">
                    <mxGeometry relative="1" as="geometry">
                        <Array as="points">
                            <mxPoint x="370" y="160"/>
                            <mxPoint x="450" y="160"/>
                            <mxPoint x="520" y="160"/>
                        </Array>
                    </mxGeometry>
                </mxCell>
                <mxCell id="PYPigxc6IGzs1RMxk9mi-24" value="src" style="rounded=1;whiteSpace=wrap;html=1;fillStyle=solid;strokeColor=#005700;fillColor=#6A00FF;gradientColor=none;gradientDirection=north;" parent="1" vertex="1">
                    <mxGeometry x="310" y="80" width="120" height="60" as="geometry"/>
                </mxCell>
                <mxCell id="PYPigxc6IGzs1RMxk9mi-35" value="" style="edgeStyle=none;html=1;" parent="1" source="PYPigxc6IGzs1RMxk9mi-25" target="PYPigxc6IGzs1RMxk9mi-33" edge="1">
                    <mxGeometry relative="1" as="geometry"/>
                </mxCell>
                <mxCell id="PYPigxc6IGzs1RMxk9mi-25" value="app" style="rounded=1;whiteSpace=wrap;html=1;fillStyle=solid;strokeColor=#005700;fillColor=#6A00FF;gradientColor=none;gradientDirection=north;" parent="1" vertex="1">
                    <mxGeometry x="710" y="80" width="120" height="60" as="geometry"/>
                </mxCell>
                <mxCell id="PYPigxc6IGzs1RMxk9mi-32" value="&lt;ul&gt;&lt;li&gt;read&amp;nbsp; all item inside the dir&lt;/li&gt;&lt;li&gt;get all content from all the mdx&lt;/li&gt;&lt;/ul&gt;" style="text;html=1;strokeColor=none;fillColor=none;align=left;verticalAlign=middle;whiteSpace=wrap;rounded=0;fillStyle=solid;" parent="1" vertex="1">
                    <mxGeometry x="370" y="370" width="130" height="30" as="geometry"/>
                </mxCell>
                <mxCell id="PYPigxc6IGzs1RMxk9mi-36" value="" style="edgeStyle=none;html=1;" parent="1" source="PYPigxc6IGzs1RMxk9mi-33" target="PYPigxc6IGzs1RMxk9mi-34" edge="1">
                    <mxGeometry relative="1" as="geometry"/>
                </mxCell>
                <mxCell id="PYPigxc6IGzs1RMxk9mi-33" value="blog" style="rounded=1;whiteSpace=wrap;html=1;fillStyle=solid;strokeColor=#005700;fillColor=#6A00FF;gradientColor=none;gradientDirection=north;" parent="1" vertex="1">
                    <mxGeometry x="710" y="180" width="120" height="60" as="geometry"/>
                </mxCell>
                <mxCell id="PYPigxc6IGzs1RMxk9mi-34" value="[slug]" style="rounded=1;whiteSpace=wrap;html=1;fillStyle=solid;strokeColor=#005700;fillColor=#6A00FF;gradientColor=none;gradientDirection=north;" parent="1" vertex="1">
                    <mxGeometry x="710" y="280" width="120" height="60" as="geometry"/>
                </mxCell>
                <mxCell id="PYPigxc6IGzs1RMxk9mi-37" value="&lt;ul&gt;&lt;li&gt;use file name&lt;/li&gt;&lt;/ul&gt;" style="text;html=1;strokeColor=none;fillColor=none;align=left;verticalAlign=middle;whiteSpace=wrap;rounded=0;fillStyle=solid;" parent="1" vertex="1">
                    <mxGeometry x="810" y="295" width="230" height="30" as="geometry"/>
                </mxCell>
                <mxCell id="PYPigxc6IGzs1RMxk9mi-38" value="&lt;div style=&quot;&quot;&gt;&lt;span style=&quot;background-color: initial;&quot;&gt;getBlog&lt;/span&gt;&lt;/div&gt;" style="rounded=1;whiteSpace=wrap;html=1;gradientDirection=north;fillStyle=solid;align=center;" parent="1" vertex="1">
                    <mxGeometry x="530" y="280" width="120" height="60" as="geometry"/>
                </mxCell>
                <mxCell id="PYPigxc6IGzs1RMxk9mi-41" value="&lt;ul&gt;&lt;li&gt;read&amp;nbsp; all item inside the dir&lt;/li&gt;&lt;/ul&gt;" style="text;html=1;strokeColor=none;fillColor=none;align=left;verticalAlign=middle;whiteSpace=wrap;rounded=0;fillStyle=solid;" parent="1" vertex="1">
                    <mxGeometry x="510" y="350" width="130" height="30" as="geometry"/>
                </mxCell>
                <mxCell id="PYPigxc6IGzs1RMxk9mi-42" value="constants" style="rounded=1;whiteSpace=wrap;html=1;fillStyle=solid;strokeColor=#005700;fillColor=#6A00FF;gradientColor=none;gradientDirection=north;" parent="1" vertex="1">
                    <mxGeometry x="170" y="490" width="120" height="60" as="geometry"/>
                </mxCell>
                <mxCell id="PYPigxc6IGzs1RMxk9mi-43" value="utils" style="rounded=1;whiteSpace=wrap;html=1;fillStyle=solid;strokeColor=#005700;fillColor=#6A00FF;gradientColor=none;gradientDirection=north;" parent="1" vertex="1">
                    <mxGeometry x="490" y="480" width="120" height="60" as="geometry"/>
                </mxCell>
                <mxCell id="PYPigxc6IGzs1RMxk9mi-46" value="&lt;ul&gt;&lt;li&gt;blogPath = join&lt;span style=&quot;background-color: rgb(31, 31, 31); color: rgb(204, 204, 204); font-family: Consolas, &amp;quot;Courier New&amp;quot;, monospace; font-size: 14px;&quot;&gt;(&lt;/span&gt;&lt;span style=&quot;font-family: Consolas, &amp;quot;Courier New&amp;quot;, monospace; font-size: 14px; color: rgb(156, 220, 254);&quot;&gt;process&lt;/span&gt;&lt;span style=&quot;background-color: rgb(31, 31, 31); color: rgb(204, 204, 204); font-family: Consolas, &amp;quot;Courier New&amp;quot;, monospace; font-size: 14px;&quot;&gt;.&lt;/span&gt;&lt;span style=&quot;font-family: Consolas, &amp;quot;Courier New&amp;quot;, monospace; font-size: 14px; color: rgb(220, 220, 170);&quot;&gt;cwd&lt;/span&gt;&lt;span style=&quot;background-color: rgb(31, 31, 31); color: rgb(204, 204, 204); font-family: Consolas, &amp;quot;Courier New&amp;quot;, monospace; font-size: 14px;&quot;&gt;(), &lt;/span&gt;&lt;span style=&quot;font-family: Consolas, &amp;quot;Courier New&amp;quot;, monospace; font-size: 14px; color: rgb(206, 145, 120);&quot;&gt;'/src/data/blogs'&lt;/span&gt;&lt;span style=&quot;background-color: rgb(31, 31, 31); color: rgb(204, 204, 204); font-family: Consolas, &amp;quot;Courier New&amp;quot;, monospace; font-size: 14px;&quot;&gt;)&lt;/span&gt;&lt;/li&gt;&lt;li&gt;&lt;span style=&quot;background-color: rgb(31, 31, 31); color: rgb(204, 204, 204); font-family: Consolas, &amp;quot;Courier New&amp;quot;, monospace; font-size: 14px;&quot;&gt;&lt;br&gt;&lt;/span&gt;&lt;/li&gt;&lt;/ul&gt;" style="text;html=1;align=left;verticalAlign=middle;resizable=0;points=[];autosize=1;strokeColor=none;fillColor=none;" parent="1" vertex="1">
                    <mxGeometry x="-220" y="480" width="400" height="80" as="geometry"/>
                </mxCell>
                <mxCell id="PYPigxc6IGzs1RMxk9mi-47" value="process&amp;nbsp;" style="text;html=1;align=center;verticalAlign=middle;resizable=0;points=[];autosize=1;strokeColor=none;fillColor=none;" parent="1" vertex="1">
                    <mxGeometry x="480" y="550" width="70" height="30" as="geometry"/>
                </mxCell>
            </root>
        </mxGraphModel>
    </diagram>
    <diagram id="xRdPI0yATHx2zgeKy4xc" name="v1">
        <mxGraphModel dx="747" dy="471" grid="1" gridSize="10" guides="1" tooltips="1" connect="1" arrows="1" fold="1" page="1" pageScale="1" pageWidth="850" pageHeight="1100" math="0" shadow="0">
            <root>
                <mxCell id="0"/>
                <mxCell id="1" parent="0"/>
            </root>
        </mxGraphModel>
    </diagram>
</mxfile>